<svg xmlns="http://www.w3.org/2000/svg" xmlns:xlink="http://www.w3.org/1999/xlink" version="1.1" x="0px" y="0px" viewBox="0 0 250 47.151" enable-background="new 0 0 250 47.151" xml:space="preserve"><g><rect x="0" y="0" fill-rule="evenodd" clip-rule="evenodd" fill="#2FA7DF" width="250" height="47.2"/></g><g><path fill="#FFFFFF" d="M18.774 17.674h-5.339v-4.541H29.51v4.541h-5.339v15.641h-5.398V17.674z"/><path fill="#FFFFFF" d="M47.805 13.133h5.398v20.182h-5.398v-6.411h-7v6.411h-5.398V13.133h5.398v9.23h7V13.133z"/><path fill="#FFFFFF" d="M60.286 13.133h5.398v20.182h-5.398V13.133z"/><path fill="#FFFFFF" d="M88.843 33.315H83l-2.818-4.63h-2.017v4.63h-5.398V13.133h7.652c1.364 0 2.6 0.2 3.6 0.6 c1.048 0.4 1.9 1 2.7 1.677c0.721 0.7 1.3 1.5 1.6 2.508c0.375 1 0.6 2 0.6 3.1 c0 1.464-0.311 2.756-0.934 3.873c-0.623 1.118-1.527 2.003-2.714 2.656L88.843 33.315z M80.164 24.4 c1.213 0 2.073-0.308 2.58-0.924c0.507-0.616 0.761-1.421 0.761-2.415c0-0.497-0.06-0.949-0.179-1.357 c-0.12-0.407-0.313-0.76-0.582-1.058c-0.269-0.298-0.612-0.531-1.029-0.701c-0.417-0.169-0.934-0.254-1.551-0.254h-1.998v6.708 H80.164z"/><path fill="#FFFFFF" d="M98.566 17.674h-5.339v-4.541h16.076v4.541h-5.339v15.641h-5.398V17.674z"/><path fill="#FFFFFF" d="M113.556 13.133h5.932l4.568 8.221l4.538-8.221h5.665l-7.593 13.059v7.123h-5.398V26.34L113.556 13.133z"/><path fill="#FFFFFF" d="M154.224 13.133h5.398v15.641h8.572v4.541h-13.97V13.133z"/><path fill="#FFFFFF" d="M178.255 33.315h-5.279l9.817-20.539c0.039-0.099 0.099-0.148 0.178-0.148s0.138 0.1 0.2 0.1 l9.788 20.539h-5.576l-0.771-1.721h-7.593L178.255 33.315z M182.734 22.868l-2.017 4.689h4.093L182.734 22.868z"/><path fill="#FFFFFF" d="M197.838 13.133h8.246c1.008 0 1.9 0.1 2.7 0.341c0.811 0.2 1.5 0.5 2.1 1 c0.573 0.4 1 0.9 1.3 1.543c0.316 0.6 0.5 1.3 0.5 2.078c0 1.128-0.223 1.984-0.667 2.6 c-0.445 0.584-0.994 1.034-1.646 1.35c0.553 0.2 1.1 0.4 1.6 0.653c0.484 0.3 0.9 0.6 1.3 1.1 c0.376 0.4 0.7 0.9 0.9 1.529c0.218 0.6 0.3 1.3 0.3 2.033c0 1.939-0.702 3.433-2.105 4.5 c-1.405 1.049-3.372 1.573-5.902 1.573h-8.602V13.133z M205.668 20.583c0.593 0 1.028-0.138 1.305-0.416 c0.277-0.277 0.415-0.653 0.415-1.128c0-0.475-0.129-0.865-0.385-1.172c-0.257-0.307-0.682-0.46-1.276-0.46h-2.669v3.176H205.668z M206.32 29.041c1.048 0 1.765-0.208 2.15-0.623c0.386-0.416 0.578-0.969 0.578-1.662c0-0.693-0.198-1.241-0.593-1.647 c-0.396-0.405-1.107-0.608-2.135-0.608h-3.262v4.541H206.32z"/><path fill="#FFFFFF" d="M226.686 33.612c-1.127 0-2.141-0.119-3.04-0.356c-0.9-0.238-1.691-0.534-2.373-0.89 c-0.682-0.356-1.265-0.757-1.75-1.202c-0.485-0.445-0.885-0.876-1.201-1.291l3.915-2.938c0.494 0.6 1.1 1.1 1.7 1.6 c0.652 0.4 1.5 0.6 2.5 0.638c0.81 0 1.439-0.123 1.883-0.371c0.445-0.247 0.668-0.657 0.668-1.232 c0-0.435-0.163-0.776-0.489-1.024c-0.327-0.247-0.826-0.479-1.498-0.697l-2.373-0.801c-0.732-0.238-1.404-0.534-2.017-0.89 c-0.613-0.356-1.142-0.781-1.587-1.276c-0.445-0.494-0.791-1.063-1.038-1.707c-0.248-0.643-0.371-1.38-0.371-2.211 c0-0.989 0.188-1.86 0.564-2.612c0.375-0.752 0.885-1.381 1.527-1.885c0.642-0.504 1.379-0.885 2.21-1.142 c0.83-0.257 1.691-0.386 2.58-0.386c0.89 0 1.7 0.1 2.4 0.223c0.702 0.1 1.3 0.3 1.9 0.6 c0.534 0.2 1 0.5 1.4 0.846c0.405 0.3 0.8 0.7 1.1 1.009l-3.085 3.235c-0.415-0.435-0.87-0.786-1.364-1.054 c-0.494-0.267-1.147-0.401-1.958-0.401c-0.652 0-1.142 0.134-1.468 0.401c-0.326 0.267-0.489 0.599-0.489 1 c0 0.4 0.1 0.7 0.3 0.92c0.227 0.2 0.6 0.4 1.1 0.564l2.669 0.89c1.009 0.3 1.9 0.7 2.6 1.1 c0.692 0.4 1.2 0.9 1.7 1.365c0.415 0.5 0.7 1.1 0.9 1.662c0.188 0.6 0.3 1.3 0.3 2 c0 0.93-0.148 1.786-0.445 2.567c-0.297 0.782-0.756 1.454-1.379 2.018s-1.419 1.005-2.388 1.3 C229.157 33.5 228 33.6 226.7 33.612z"/></g></svg>