<svg xmlns="http://www.w3.org/2000/svg" xmlns:xlink="http://www.w3.org/1999/xlink" version="1.1" x="0px" y="0px" viewBox="14.87 14.868 482.261 482.264" enable-background="new 14.87 14.868 482.261 482.264" xml:space="preserve"><style>.style0{fill:	#010101;}</style><path d="M459.654 233.373l-90.531 90.5c-49.969 50-131.031 50-181 0c-7.875-7.844-14.031-16.688-19.438-25.813 l42.063-42.063c2-2.016 4.469-3.172 6.828-4.531c2.906 9.9 8 19.3 15.8 27.156c24.953 25 65.6 24.9 90.5 0 l90.5-90.5c24.969-24.969 24.969-65.563 0-90.516c-24.938-24.953-65.531-24.953-90.5 0l-32.188 32.2 c-26.109-10.172-54.25-12.906-81.641-8.891l68.578-68.578c50-49.984 131.031-49.984 181 0 C509.623 102.3 509.6 183.4 459.7 233.373z M220.326 382.186l-32.203 32.219c-24.953 24.938-65.563 24.938-90.516 0 c-24.953-24.969-24.953-65.563 0-90.531l90.516-90.5c24.969-24.969 65.547-24.969 90.5 0c7.797 7.8 12.9 17.2 15.8 27.1 c2.375-1.375 4.813-2.5 6.813-4.5l42.063-42.047c-5.375-9.156-11.563-17.969-19.438-25.828c-49.969-49.984-131.031-49.984-181.016 0 l-90.5 90.5c-49.984 50-49.984 131 0 181.031c49.984 50 131 50 181 0l68.594-68.594 C274.561 395.1 246.4 392.3 220.3 382.186z" class="style0"/></svg>